adjusted_angles_states
version=1
nRows=8
nColumns=49
inDegrees=yes

# SIMM Motion File Header:
name adjusted_angles_states
datacolumns 49
datarows 8
otherdata 1
range 0.51876475 0.52529323
endheader
time	/jointset/bb/crank_angle/value	/jointset/bb/crank_angle/speed	/jointset/spindle/pedal_angle_r/value	/jointset/spindle/pedal_angle_r/speed	/jointset/ground_pelvis/pelvis_tilt/value	/jointset/ground_pelvis/pelvis_tilt/speed	/jointset/ground_pelvis/pelvis_list/value	/jointset/ground_pelvis/pelvis_list/speed	/jointset/ground_pelvis/pelvis_rotation/value	/jointset/ground_pelvis/pelvis_rotation/speed	/jointset/ground_pelvis/pelvis_tx/value	/jointset/ground_pelvis/pelvis_tx/speed	/jointset/ground_pelvis/pelvis_ty/value	/jointset/ground_pelvis/pelvis_ty/speed	/jointset/ground_pelvis/pelvis_tz/value	/jointset/ground_pelvis/pelvis_tz/speed	/jointset/hip_r/hip_angle_r/value	/jointset/hip_r/hip_angle_r/speed	/jointset/hip_r/hip_adduction_r/value	/jointset/hip_r/hip_adduction_r/speed	/jointset/hip_r/hip_rotation_r/value	/jointset/hip_r/hip_rotation_r/speed	/jointset/knee_r/knee_angle_r/value	/jointset/knee_r/knee_angle_r/speed	/jointset/knee_r/tib_tx_r/value	/jointset/knee_r/tib_tx_r/speed	/jointset/knee_r/tib_ty_r/value	/jointset/knee_r/tib_ty_r/speed	/jointset/tib_pat_r/pat_angle_r/value	/jointset/tib_pat_r/pat_angle_r/speed	/jointset/tib_pat_r/pat_tx_r/value	/jointset/tib_pat_r/pat_tx_r/speed	/jointset/tib_pat_r/pat_ty_r/value	/jointset/tib_pat_r/pat_ty_r/speed	/jointset/ankle_r/ankle_angle_r/value	/jointset/ankle_r/ankle_angle_r/speed	/jointset/subtalar_r/subtalar_angle_r/value	/jointset/subtalar_r/subtalar_angle_r/speed	/jointset/mtp_r/mtp_angle_r/value	/jointset/mtp_r/mtp_angle_r/speed	/forceset/bifemlh_r/activation	/forceset/bifemlh_r/fiber_length	/forceset/bifemsh_r/activation	/forceset/bifemsh_r/fiber_length	/forceset/glut_max2_r/activation	/forceset/glut_max2_r/fiber_length	/forceset/vas_int_r/activation	/forceset/vas_int_r/fiber_length
      0.51876475	   -419.39787186	   -656.77170570	    430.12657353	    783.20992299	      0.00000000	     -0.00000000	     -0.00000000	     -0.00000000	     -0.00000000	      0.00000000	     -0.14965250	      0.00000000	     -0.06584239	     -0.00000000	      0.00000000	     -0.00000000	     78.37215128	   -216.07365087	      4.29618671	      2.33114629	     -1.54692864	     29.77183783	    -89.72894563	    380.14455828	      0.00386135	      0.05061407	     -0.48584206	      0.13182570	     17.56581526	     -1.26827538	      0.03286326	      0.14498683	     -0.02268933	      0.01375924	     22.60356548	    -39.48076286	     -0.00000000	      0.00000000	     -0.00000000	      0.00000000	      0.02187474	      0.14101061	      0.02002861	      0.15151481	      0.02002861	      0.15407039	      0.02184472	      0.14813215
      0.51989846	   -420.14272003	   -657.23370853	    431.01457502	    783.33737947	      0.00000000	     -0.00000000	     -0.00000000	     -0.00000000	     -0.00000000	      0.00000000	     -0.14965250	      0.00000000	     -0.06584239	     -0.00000000	      0.00000000	      0.00000000	     78.12567725	   -218.73246414	      4.29881546	      2.30618272	     -1.51314650	     29.82399225	    -89.29711839	    381.64801690	      0.00391817	      0.04962475	     -0.48569233	      0.13231683	     17.56439384	     -1.23892736	      0.03302762	      0.14496251	     -0.02267392	      0.01342670	     22.55927732	    -38.64774681	     -0.00000000	     -0.00000000	     -0.00000000	      0.00000000	      0.02196615	      0.14096470	      0.02002819	      0.15166955	      0.02002819	      0.15396837	      0.02181707	      0.14789377
      0.52061822	   -420.61588326	   -657.53630117	    431.57842904	    783.43406660	      0.00000000	     -0.00000000	     -0.00000000	     -0.00000000	     -0.00000000	      0.00000000	     -0.14965250	      0.00000000	     -0.06584239	     -0.00000000	      0.00000000	      0.00000000	     77.96763731	   -220.40823206	      4.30046957	      2.29003435	     -1.49166823	     29.85724143	    -89.02208036	    382.59319513	      0.00395366	      0.04899052	     -0.48559698	      0.13262219	     17.56350916	     -1.21916000	      0.03313195	      0.14494156	     -0.02266433	      0.01320607	     22.53165144	    -38.11523316	     -0.00000000	      0.00000000	     -0.00000000	      0.00000000	      0.02202423	      0.14093511	      0.02002792	      0.15179864	      0.02002792	      0.15390261	      0.02179974	      0.14774149
      0.52153103	   -421.21626772	   -657.93360649	    432.29361769	    783.57806961	      0.00000000	     -0.00000000	     -0.00000000	     -0.00000000	     -0.00000000	      0.00000000	     -0.14965250	      0.00000000	     -0.06584239	     -0.00000000	      0.00000000	     -0.00000000	     77.76548165	   -222.52092045	      4.30255047	      2.26923538	     -1.46439494	     29.89973692	    -88.67230237	    383.78338683	      0.00399801	      0.04817968	     -0.48547575	      0.13300285	     17.56240822	     -1.19281260	      0.03326424	      0.14490966	     -0.02265241	      0.01291561	     22.49716922	    -37.43603136	     -0.00000000	     -0.00000000	     -0.00000000	      0.00000000	      0.02209794	      0.14089711	      0.02002758	      0.15191383	      0.02002758	      0.15381810	      0.02177799	      0.14754747
      0.52233751	   -421.74702468	   -658.29390667	    432.92561677	    783.72118702	      0.00000000	     -0.00000000	     -0.00000000	     -0.00000000	     -0.00000000	      0.00000000	     -0.14965250	      0.00000000	     -0.06584239	     -0.00000000	      0.00000000	     -0.00000000	     77.58527395	   -224.37482711	      4.30437305	      2.25055321	     -1.44026611	     29.93746117	    -88.36236690	    384.82517063	      0.00403658	      0.04745712	     -0.48536835	      0.13333234	     17.56145603	     -1.16832499	      0.03338109	      0.14487585	     -0.02264210	      0.01264889	     22.46722096	    -36.83216861	     -0.00000000	     -0.00000000	     -0.00000000	      0.00000000	      0.02216310	      0.14086308	      0.02002729	      0.15206061	      0.02002729	      0.15374239	      0.02175900	      0.14737515
      0.52332275	   -422.39582517	   -658.75054392	    433.69786618	    783.92177389	      0.00000000	     -0.00000000	     -0.00000000	     -0.00000000	     -0.00000000	      0.00000000	     -0.14965250	      0.00000000	     -0.06584239	     -0.00000000	      0.00000000	     -0.00000000	     77.36310118	   -226.62518880	      4.30657900	      2.22736101	     -1.41074766	     29.98402075	    -87.98259894	    386.08823797	      0.00408289	      0.04656701	     -0.48523679	      0.13372705	     17.56032031	     -1.13685968	      0.03352381	      0.14482853	     -0.02262980	      0.01231016	     22.43129769	    -36.08993542	     -0.00000000	     -0.00000000	     -0.00000000	      0.00000000	      0.02224274	      0.14082095	      0.02002694	      0.15218560	      0.02002694	      0.15364857	      0.02173608	      0.14716353
      0.52430799	   -423.04508267	   -659.21945438	    434.47032499	    784.14367027	      0.00000000	     -0.00000000	     -0.00000000	     -0.00000000	     -0.00000000	      0.00000000	     -0.14965250	      0.00000000	     -0.06584239	     -0.00000000	      0.00000000	     -0.00000000	     77.13871966	   -228.85776706	      4.30876188	      2.20374767	     -1.38118314	     30.03087302	    -87.60159279	    387.33738598	      0.00412833	      0.04566854	     -0.48510485	      0.13411195	     17.55921644	     -1.10365815	      0.03366647	      0.14477345	     -0.02261785	      0.01195700	     22.39610824	    -35.34241772	     -0.00000000	     -0.00000000	     -0.00000000	      0.00000000	      0.02232243	      0.14077819	      0.02002659	      0.15243660	      0.02002659	      0.15355327	      0.02171345	      0.14695067
      0.52529323	   -423.69481395	   -659.71113115	    435.24301971	    784.39930646	      0.00000000	     -0.00000000	     -0.00000000	     -0.00000000	     -0.00000000	      0.00000000	     -0.14965250	      0.00000000	     -0.06584239	     -0.00000000	      0.00000000	      0.00000000	     76.91214524	   -231.07634157	      4.31092132	      2.17975305	     -1.35157204	     30.07853552	    -87.21935939	    388.57887200	      0.00417288	      0.04476261	     -0.48497253	      0.13448913	     17.55814614	     -1.06871530	      0.03380908	      0.14471303	     -0.02260625	      0.01158943	     22.36165757	    -34.59018566	     -0.00000000	     -0.00000000	     -0.00000000	      0.00000000	      0.02240214	      0.14073482	      0.02002624	      0.15249787	      0.02002624	      0.15345650	      0.02169112	      0.14673658
